<svg id="Background" xmlns="http://www.w3.org/2000/svg" viewBox="0 0 120 42"><defs><style>.cls-1{fill:#0e2e40;}.cls-2{fill:#fff;}</style></defs><title>wildchinabs_logo</title><rect class="cls-1" width="120" height="42"/><path class="cls-2" d="M39.55,16.71l0.57-1.39h0.5c0.18,0.52.36,1,.55,1.49l1.52,3.81h0l1.08-4.21a1.43,1.43,0,0,0,0-.37,0.37,0.37,0,0,0-.39-0.23l-0.52,0V15.38l1.21,0,1.21,0v0.41l-0.37,0a0.93,0.93,0,0,0-.48.77l-1.37,4.84C43,22,42.9,22.51,42.77,23H42c-0.15-.39-0.27-0.79-0.43-1.18l-1.67-4.21-1.74,4c-0.2.46-.35,0.93-0.53,1.4H36.8L35.25,16.3a0.49,0.49,0,0,0-.41-0.47l-0.36,0V15.38l1.75,0,1.5,0v0.41l-0.47,0a0.37,0.37,0,0,0-.34.26,2,2,0,0,0,0,.31l0.91,4.26h0Z"/><path class="cls-2" d="M48.47,21.5a2.69,2.69,0,0,0,.08.91,0.53,0.53,0,0,0,.46.16l0.42,0V23c-0.46,0-1.08,0-1.74,0s-1.29,0-1.75,0V22.6l0.42,0a0.52,0.52,0,0,0,.46-0.16,2.65,2.65,0,0,0,.08-0.91V16.92A2.64,2.64,0,0,0,46.81,16a0.51,0.51,0,0,0-.46-0.16l-0.42,0V15.38c0.46,0,1.08,0,1.75,0s1.28,0,1.74,0v0.45l-0.42,0a0.52,0.52,0,0,0-.46.16,2.69,2.69,0,0,0-.08.91V21.5Z"/><path class="cls-2" d="M52.84,22.36c0.47,0,1,0,1.44,0a3.88,3.88,0,0,0,1.37-.19l0.26-1.15h0.44l-0.12,1.86L56.16,23c-0.45,0-1.11,0-1.72,0h-1c-0.46,0-.92,0-1.38,0s-0.93,0-1.35,0V22.79l0.36-.2a0.64,0.64,0,0,0,.23-0.64v-5A2.72,2.72,0,0,0,51.18,16a0.52,0.52,0,0,0-.46-0.16l-0.42,0V15.38c0.46,0,1.08,0,1.75,0s1.28,0,1.74,0v0.45l-0.42,0a0.52,0.52,0,0,0-.46.16,2.7,2.7,0,0,0-.08.91v5.44h0Z"/><path class="cls-2" d="M58.06,16.92A2.75,2.75,0,0,0,58,16a0.48,0.48,0,0,0-.46-0.19l-0.41,0V15.38l1.75,0c0.73,0,1.89,0,2.88,0,2.41,0,3.79,1,3.79,3.5,0,2.67-2.2,4.17-4.56,4.17h-0.1c-0.56,0-1.11,0-1.67,0s-1.11,0-1.72,0V22.79l0.36-.2a0.64,0.64,0,0,0,.22-0.64v-5Zm1.58,5.45a5.78,5.78,0,0,0,1,.05c2.23,0,3.24-1.1,3.24-3.34s-1-3.15-3.52-3.15a5,5,0,0,0-.69,0v6.39Z"/><path class="cls-2" d="M73.58,22.59A4.89,4.89,0,0,1,71,23.2c-2.56,0-4.44-1.43-4.44-4.12s2.1-3.87,4.49-3.87a6.39,6.39,0,0,1,2.75.53l0.07,0.13a15.39,15.39,0,0,0-.26,1.72H73.17l-0.06-1a2.66,2.66,0,0,0-2-.77,2.78,2.78,0,0,0-2.85,3.1,3.2,3.2,0,0,0,3.31,3.53,4.78,4.78,0,0,0,2.14-.57L73.83,22Z"/><path class="cls-2" d="M77.1,18.69c0.17,0,.38,0,0.91,0h1.64c0.53,0,.74,0,0.91,0V16.92A2.7,2.7,0,0,0,80.48,16,0.52,0.52,0,0,0,80,15.86l-0.41,0V15.38c0.46,0,1.08,0,1.75,0s1.28,0,1.74,0v0.45l-0.41,0a0.52,0.52,0,0,0-.46.16,2.66,2.66,0,0,0-.08.91V21.5a2.67,2.67,0,0,0,.08.91,0.53,0.53,0,0,0,.46.16l0.41,0V23c-0.46,0-1.08,0-1.74,0s-1.29,0-1.75,0V22.6l0.41,0a0.53,0.53,0,0,0,.46-0.16,2.7,2.7,0,0,0,.08-0.91V19.37c-0.17,0-.38,0-0.91,0H78c-0.53,0-.74,0-0.91,0V21.5a2.67,2.67,0,0,0,.08.91,0.53,0.53,0,0,0,.46.16l0.42,0V23c-0.46,0-1.08,0-1.74,0S75,23,74.57,23V22.6l0.41,0a0.53,0.53,0,0,0,.46-0.16,2.67,2.67,0,0,0,.08-0.91V16.92A2.66,2.66,0,0,0,75.44,16,0.52,0.52,0,0,0,75,15.86l-0.41,0V15.38c0.46,0,1.08,0,1.75,0s1.28,0,1.74,0v0.45l-0.42,0a0.52,0.52,0,0,0-.46.16,2.66,2.66,0,0,0-.08.91v1.77Z"/><path class="cls-2" d="M86.48,21.5a2.67,2.67,0,0,0,.08.91,0.53,0.53,0,0,0,.46.16l0.42,0V23c-0.46,0-1.08,0-1.74,0s-1.29,0-1.75,0V22.6l0.41,0a0.53,0.53,0,0,0,.46-0.16,2.67,2.67,0,0,0,.08-0.91V16.92A2.66,2.66,0,0,0,84.82,16a0.52,0.52,0,0,0-.46-0.16l-0.41,0V15.38c0.46,0,1.08,0,1.75,0s1.28,0,1.74,0v0.45l-0.42,0a0.52,0.52,0,0,0-.46.16,2.66,2.66,0,0,0-.08.91V21.5Z"/><path class="cls-2" d="M89.22,16.92A2.78,2.78,0,0,0,89.14,16a0.48,0.48,0,0,0-.46-0.19l-0.41,0V15.38c0.45,0,.9,0,1.34,0s0.63,0,.95,0c0.38,0.49.75,1,1.15,1.49l3.5,4.08v-4A2.66,2.66,0,0,0,95.13,16a0.47,0.47,0,0,0-.46-0.19l-0.42,0V15.38c0.43,0,.87,0,1.29,0s0.85,0,1.28,0v0.41l-0.41,0a0.48,0.48,0,0,0-.46.19,2.64,2.64,0,0,0-.08.91V22c0,0.39,0,.8,0,1.13l-0.08,0L94.91,23c-0.46-.52-0.93-1-1.37-1.56L89.9,17.12h0V21.5a2.61,2.61,0,0,0,.08.91,0.46,0.46,0,0,0,.46.19l0.42,0V23c-0.43,0-.85,0-1.28,0s-0.87,0-1.29,0V22.63l0.41,0a0.47,0.47,0,0,0,.46-0.19,2.7,2.7,0,0,0,.08-0.91V16.92h0Z"/><path class="cls-2" d="M99.66,20.71L99.19,22a0.85,0.85,0,0,0-.06.27,0.34,0.34,0,0,0,.33.37l0.56,0V23l-1.27,0-1.27,0V22.63l0.34,0a0.94,0.94,0,0,0,.63-0.67l2-4.91,0.64-1.69h0.79l2.91,6.79a0.7,0.7,0,0,0,.62.49l0.27,0V23L104,23l-1.74,0V22.63l0.59,0a0.28,0.28,0,0,0,.23-0.33A0.83,0.83,0,0,0,103,22l-0.5-1.28H99.66Zm0.27-.63h2.29l-1.17-2.85Z"/><path class="cls-2" d="M23.36,4.7s0,0,0,0-0.09,0-.06,0l-0.06,0A0.3,0.3,0,0,1,23.36,4.7Z"/><path class="cls-2" d="M13.88,5.74V5.8H13.82C13.81,5.75,13.84,5.74,13.88,5.74Z"/><path class="cls-2" d="M17.77,6.06a0.2,0.2,0,0,0,0,0S17.75,6,17.77,6.06Z"/><path class="cls-2" d="M23.65,8.33c0.06,0,0,0,0,.08S23.66,8.36,23.65,8.33Z"/><path class="cls-2" d="M22.93,12.3h0v0h0v0Z"/><path class="cls-2" d="M22,15.82s0,0.09-.06.08A0.3,0.3,0,0,1,22,15.82Z"/><path class="cls-2" d="M24.55,16s0,0,0,.06S24.49,15.94,24.55,16Z"/><path class="cls-2" d="M24.19,17.62s0,0,0,.08,0,0,0-.08A0.09,0.09,0,0,1,24.19,17.62Z"/><path class="cls-2" d="M22.69,18.34c0-.07.08,0,0,0h0Z"/><path class="cls-2" d="M23.54,25.36s0.07,0,0,0A0.11,0.11,0,0,0,23.54,25.36Z"/><path class="cls-2" d="M23.16,25.39h0v0h0v0Z"/><path class="cls-2" d="M15.15,25.71a0.35,0.35,0,0,1,0,.12,0.68,0.68,0,0,0-.11,0,0.11,0.11,0,0,1,0-.12A0.14,0.14,0,0,0,15.15,25.71Z"/><path class="cls-2" d="M15.64,25.88s0,0.08,0,.06S15.63,25.91,15.64,25.88Z"/><path class="cls-2" d="M19.36,31.65c0.07,0,0,.06,0,0.11s0,0,0-.08S19.36,31.67,19.36,31.65Z"/><path class="cls-2" d="M22.52,33.13c0.08,0,.06.08,0,0.09V33.13Z"/><path class="cls-2" d="M20.35,36.78a0.07,0.07,0,0,1,.06.09H20.32A0.1,0.1,0,0,0,20.35,36.78Z"/><path class="cls-2" d="M20.48,36.8h0v0h0v0Z"/><path class="cls-2" d="M19.41,37l0,0c0,0.06,0,.09-0.06.09A0.44,0.44,0,0,1,19.41,37Z"/><path class="cls-2" d="M15.64,38.34s0,0,0,0l0,0v0Z"/><path class="cls-2" d="M19.19,7.74s0,0,0-.09a0.27,0.27,0,0,0-.2,0s0,0,0,0a0.22,0.22,0,0,1-.18-0.23l0.06,0s-0.07,0,0,0-0.07,0-.08,0,0,0,0,0-0.09,0-.08-0.09a0.07,0.07,0,0,1-.09,0c0.07-.07.06-0.29-0.09-0.27a0.16,0.16,0,0,0,0-.12c0.16,0,.16-0.2.29-0.17a0.54,0.54,0,0,1,.2-0.17s0.08,0,.08.08a0.12,0.12,0,0,0,.11-0.08c0.05,0,.1.06,0.11,0a0.48,0.48,0,0,0,.41-0.09s0,0,0,0l0.12,0a0.23,0.23,0,0,1,0-.12s0,0,.06,0a0.9,0.9,0,0,0,.18-0.21c-0.06,0,0,0,0-.12a0.1,0.1,0,0,0,.17-0.08c0.15-.07.2-0.24,0.34-0.32s0.12-.12.12-0.23a0.44,0.44,0,0,1,.08,0,2.16,2.16,0,0,0,.11-0.21,0.8,0.8,0,0,0,.26-0.37,0.26,0.26,0,0,0,.11,0,0.12,0.12,0,0,1,0-.09h0a1.45,1.45,0,0,1,.09-0.2s0,0,.09,0a3,3,0,0,1,.14-0.4,0.07,0.07,0,0,1,.06,0,0.16,0.16,0,0,1,.11-0.06,0.22,0.22,0,0,1,.14-0.21s0,0.09,0,.08,0.08,0,.08.08A1.34,1.34,0,0,1,22,3.65a0.09,0.09,0,0,1,0-.06,0.39,0.39,0,0,0,.18,0,1,1,0,0,1,0,.14,0.16,0.16,0,0,1,.08-0.06V3.68a0.3,0.3,0,0,0,0-.06,0.06,0.06,0,0,0,.08,0c0,0.16.23,0.06,0.24,0.18a0.23,0.23,0,0,0,.09,0,1.39,1.39,0,0,0,.32.2,0.54,0.54,0,0,1,.17.38s0,0,0,.06a0.34,0.34,0,0,0,0,.17,1,1,0,0,0-.08.41,0.61,0.61,0,0,0-.29.18c-0.06-.06-0.12,0-0.17.08s0,0-.06,0a0.54,0.54,0,0,0-.24.23c-0.08,0-.1,0-0.08.09a0.94,0.94,0,0,0-.29.21c0,0.05,0,.07,0,0.12a0.4,0.4,0,0,0-.15.08,0.55,0.55,0,0,1-.15.26l0,0a0.36,0.36,0,0,1-.21.24V6.55a0.87,0.87,0,0,0-.2.17V6.84c-0.09,0-.12,0-0.12.12S21.08,7,21,7.07a0.27,0.27,0,0,1,0,.14,0.5,0.5,0,0,0-.18.14,0.56,0.56,0,0,0,.06.11,0.13,0.13,0,0,1-.09,0s0,0.1-.06.14a0.74,0.74,0,0,0-.21.08,0.45,0.45,0,0,1,.15.11,0.29,0.29,0,0,1-.09.24,0.33,0.33,0,0,0,.14.06,0.21,0.21,0,0,0,0,.14c0.06,0,.05,0,0.08.08L20.9,8.35s0.07-.09.12,0a0.49,0.49,0,0,0,.15-0.26h0a0.51,0.51,0,0,1,.18-0.18V7.85c0.2-.14.29-0.38,0.5-0.5s0.22-.21.29-0.35a0.58,0.58,0,0,0,.26-0.24,0.12,0.12,0,0,0,.12-0.11,2.38,2.38,0,0,1,1.28-.58,1.69,1.69,0,0,1,.64.18,0.28,0.28,0,0,0,.18.17,1.34,1.34,0,0,1,.31.41,1.64,1.64,0,0,1,.35.81,0.83,0.83,0,0,1,.06.64,0.17,0.17,0,0,0,0,0,1,1,0,0,0,0,.35c0.07,0,0,.1,0,0.2s0,0-.06,0,0,0.12,0,.11,0,0.09.06,0.08a1.72,1.72,0,0,0-.12.2c0.21,0-.07.28,0,0.44a0.11,0.11,0,0,1-.09.08c0,0.05.07,0.28,0,.3a0.15,0.15,0,0,1,0,.11s0-.06-0.06,0,0,0,.06.06,0,0.08-.06.12a0.13,0.13,0,0,0,.06.12,0.19,0.19,0,0,1-.09.12,0.49,0.49,0,0,1,0,.37,1.22,1.22,0,0,1-.06.52c0,0.06,0,.17,0,0.26s0,0,0,0a0.16,0.16,0,0,1,.06.09c0,0.1-.06.18-0.08,0.27s0,0.11,0,.17a0.63,0.63,0,0,0-.08.26,0.52,0.52,0,0,1,0,.2s-0.05.06-.08,0.12,0,0.2,0,.26h0a0.59,0.59,0,0,1-.06.26c-0.09-.07,0,0.09-0.12.06s0.05,0.11,0,.18l-0.06,0a0.12,0.12,0,0,1-.08.17c0,0.21-.17.27-0.14,0.44a0.48,0.48,0,0,0-.2.12V14.5a1.25,1.25,0,0,1-.12.06,0.23,0.23,0,0,1-.06.17c-0.08-.06-0.1,0-0.2,0a0.14,0.14,0,0,0,0,.08,1.06,1.06,0,0,1-.23.09,0.07,0.07,0,0,0,0,0H23.41L23.3,15a0.12,0.12,0,0,0,0,0l0,0a0.2,0.2,0,0,1-.11,0,0.23,0.23,0,0,1-.08,0,0.11,0.11,0,0,1,0,0,0.55,0.55,0,0,0-.2,0c0,0.05-.17.13-0.2,0.06a0.43,0.43,0,0,1-.38,0A0.42,0.42,0,0,0,22,14.95s0-.06,0-0.06S22,14.76,21.9,14.81s0,0,0,0,0,0.06,0,.09a0.15,0.15,0,0,0-.12.11,0.22,0.22,0,0,0-.15,0,0.11,0.11,0,0,0,0,0,0.34,0.34,0,0,0-.18.26,0.13,0.13,0,0,1-.09-0.15,0.22,0.22,0,0,0-.09.26,1.5,1.5,0,0,1-.31.06v0a1.2,1.2,0,0,0-.18-0.15,0.1,0.1,0,0,1-.14,0,0.11,0.11,0,0,1-.12,0s0,0.06,0,.08a0.1,0.1,0,0,0-.08,0,1,1,0,0,0-.24.27c-0.06,0-.06,0-0.12,0s0,0.09-.09.12a0.94,0.94,0,0,0-.12.28l-0.06.09a0.35,0.35,0,0,0,.06.23,0.81,0.81,0,0,0,.47,0,0.45,0.45,0,0,0,.43,0,0,0,0,0,1,0,0s0.12-.07.12,0a0.18,0.18,0,0,0,.09-0.08c0.14,0,.12-0.1.26-0.08l0,0a0.1,0.1,0,0,1,.06,0,0.61,0.61,0,0,1,.34-0.14A0.15,0.15,0,0,1,21.74,16a0.52,0.52,0,0,0,0-.11c0.1,0.11.18,0,.29,0a0.11,0.11,0,0,1,0-.15,0.11,0.11,0,0,1,.11.11,0.06,0.06,0,0,0,.08-0.06,0.64,0.64,0,0,0,.24-0.09c0-.06,0-0.13.08-0.15a0.16,0.16,0,0,0,.21,0,0.71,0.71,0,0,1,.12,0,1.09,1.09,0,0,0,0,.12,0.05,0.05,0,0,1,.09,0s0,0,0-.09a0.42,0.42,0,0,1,.21,0s0,0,0,0l0.11,0s0.07,0.07.09,0.08a1.17,1.17,0,0,0,.14,0,0.45,0.45,0,0,0,.24,0s0,0,0,.08A0.49,0.49,0,0,0,24,15.75s0,0,0,.06h0.31s0.05,0,0,.06,0-.05.06,0a0.73,0.73,0,0,0,0,.12,0.12,0.12,0,0,0,.06-0.08s0,0,.06,0a0.6,0.6,0,0,1-.15.26,0.29,0.29,0,0,0,0-.12,0.3,0.3,0,0,0-.11.14,0.16,0.16,0,0,1,.15,0s0,0,0,.08,0.12,0.06.12,0,0,0,0,.11a0.15,0.15,0,0,1,.09.11s0,0,.06,0a0.51,0.51,0,0,0-.09.26s0,0,.09,0,0,0.07.06,0.11a0.71,0.71,0,0,0,0,.15,0.05,0.05,0,0,1-.08,0l-0.08,0a0.15,0.15,0,0,1,0,.09c-0.11,0-.06.16-0.17,0.2a0.71,0.71,0,0,0,0,.11,0.17,0.17,0,0,1-.15,0,1,1,0,0,1-.09.11s-0.06,0-.09,0-0.07,0-.06.06a0.27,0.27,0,0,0-.11,0,0.17,0.17,0,0,0-.09.14s-0.11,0-.06,0-0.06-.06-0.09-0.06,0,0.07,0,.11-0.13,0-.17,0a0.54,0.54,0,0,1-.17.2,0.23,0.23,0,0,1,0,.09c-0.05,0,0,0,0-.06s0,0-.08,0a0.89,0.89,0,0,1-.09.12A0.1,0.1,0,0,0,23,18a1.42,1.42,0,0,1-.26.27,0.2,0.2,0,0,1,0-.11c-0.07,0-.1.07-0.17,0.09a1.73,1.73,0,0,1-.29.27s0,0-.06,0a0.35,0.35,0,0,0-.14.18l0,0c-0.06.18-.26,0.22-0.32,0.4,0,0,0,0-.09,0a0.53,0.53,0,0,1-.29.4,1,1,0,0,0,0,.18,0.32,0.32,0,0,0-.14.34H21.21a0.42,0.42,0,0,0,0,.2,0.76,0.76,0,0,0-.14.28s0.07,0.19,0,.17a0.64,0.64,0,0,1,.06.17,1.12,1.12,0,0,0,.34-0.27,0.38,0.38,0,0,0,.29-0.17A0.67,0.67,0,0,0,22,20.37V20.31a4.62,4.62,0,0,1,.46-0.18s0-.06.08-0.08A0.2,0.2,0,0,0,22.69,20c0.1,0,.21,0,0.3-0.08s0.1-.07.15-0.09,0.09,0,.14,0l0.29-.12A0.73,0.73,0,0,0,24,19.62s0,0,0,0c0.18-.06.42,0.07,0.59,0a1.54,1.54,0,0,1,.64.2l0,0a0.91,0.91,0,0,1,.15.46,0.5,0.5,0,0,1,.06.18l0.17,0.15a1.82,1.82,0,0,1-.15.53,0.38,0.38,0,0,1,0,.21c-0.05,0,0,.05-0.09,0s-0.06.13-.06,0.23,0,0,.08,0a0.3,0.3,0,0,0,0,.12,0.13,0.13,0,0,0-.06,0,0.82,0.82,0,0,1,.06.15c-0.14,0-.1.16-0.12,0.26s0,0,.06,0a0.12,0.12,0,0,1,0,.06c-0.07,0,0,0,0,0s0,0.17,0,.31a0.14,0.14,0,0,1-.11,0,0.1,0.1,0,0,1-.08.14c0.06,0.06,0,.12-0.06.15a0.33,0.33,0,0,1,0,.14c-0.07,0,0,0,0,.09a0.17,0.17,0,0,1-.12,0s0,0,0,.06a1.55,1.55,0,0,1-.18.27s0,0,0,.08,0,0,.06,0,0.09,0,.15,0a0.66,0.66,0,0,1,.09,0,1.3,1.3,0,0,0,.14,0c0.13,0,.23.09,0.37,0.11a0.2,0.2,0,0,0,.2.09,0.58,0.58,0,0,1,0,.06,1.86,1.86,0,0,0,.23.18,0.56,0.56,0,0,1,0,.52l-0.08-.06a0.31,0.31,0,0,1-.31.2,0.36,0.36,0,0,0-.12.15,0.26,0.26,0,0,0-.17.08,0.84,0.84,0,0,0-.43.14c-0.06,0-.17,0-0.23,0a0.45,0.45,0,0,0,0,.08,0.58,0.58,0,0,1-.37,0l-0.08.09a0.48,0.48,0,0,0-.11,0c-0.06,0,0,0,0,.09s-0.09,0-.15,0,0,0,0,0,0,0,0-.06,0,0-.08,0-0.19.1-.27,0a0.36,0.36,0,0,1-.11.06,0.18,0.18,0,0,0-.23-0.08,0.36,0.36,0,0,0,0,.14,0.08,0.08,0,0,1,0-.08,0.46,0.46,0,0,1-.08.06c0.06,0,0,0,0,.06s-0.07,0-.08-0.08,0,0-.12.06a0.1,0.1,0,0,0,0,.11,0.19,0.19,0,0,1-.21,0,0.71,0.71,0,0,0-.26.08s0-.08,0-0.08a0.17,0.17,0,0,1,.14-0.06l0,0c-0.08-.05-0.16,0-0.2.09a0.17,0.17,0,0,1,0,.11,0.1,0.1,0,0,0-.08.06c-0.06,0,0,0-.08,0s-0.08,0-.06-0.08,0,0-.06.09a0.06,0.06,0,0,0,.09,0s0,0,0,.09-0.08,0-.14,0,0,0,0-.06,0,0-.06.08a0.36,0.36,0,0,0-.21.11c-0.07,0-.09,0-0.12.06a0.29,0.29,0,0,1,0,.15s0,0,0,.06a0.2,0.2,0,0,1-.15,0,0.81,0.81,0,0,0-.21.34,0.22,0.22,0,0,0-.14.08s0,0.13-.08.12a0.08,0.08,0,0,1,0,0,0.19,0.19,0,0,0-.23,0,0.15,0.15,0,0,1,0-.06,0.16,0.16,0,0,0-.08.08s-0.08,0-.09,0a0.28,0.28,0,0,1,0-.14,0.55,0.55,0,0,1-.2,0,0.1,0.1,0,0,1,0-.08,0.45,0.45,0,0,0-.23.12l-0.24,0s-0.12.06-.11,0H19.7c0.1-.09.23-0.16,0.34-0.24a0.39,0.39,0,0,0-.12-0.26s0,0,0,0a0.54,0.54,0,0,1,0-.17c-0.07,0,0-.1-0.14-0.11a0.26,0.26,0,0,0,0-.21c0.07,0,0-.05,0-0.08a1.39,1.39,0,0,1-.21-0.29,0.13,0.13,0,0,0,0-.14,0.1,0.1,0,0,1,.08,0s-0.06,0-.08,0,0-.12,0-0.15L19.46,25a1.85,1.85,0,0,0-.09-0.4s0,0,0,0,0-.12,0-0.23c-0.11,0,0-.19-0.14-0.21a1,1,0,0,0,0-.47,0.22,0.22,0,0,0-.08,0,1,1,0,0,0,0-.46,0,0,0,0,0,0,0s0-.08,0-0.11a1,1,0,0,1-.24,0s0,0.06.06,0a0.52,0.52,0,0,0-.14.25,0.08,0.08,0,0,0,0,0s-0.17,0-.17,0a0.12,0.12,0,0,0,.08,0s0,0,0,0a0.16,0.16,0,0,0-.11.09,0.41,0.41,0,0,0-.17,0,0.2,0.2,0,0,0,0,.15c0,0.07-.14,0-0.12.14a3,3,0,0,0-.32.14c-0.06.06,0,.21-0.18,0.21a0.46,0.46,0,0,1-.2.14,0.36,0.36,0,0,0,.06.06,0.86,0.86,0,0,0-.15.15,0.56,0.56,0,0,0-.28,0,0.11,0.11,0,0,0,.06.11,1.3,1.3,0,0,0-.09.14S17,25,17,25s-0.35.07-.24,0.26a0.41,0.41,0,0,1-.2.09s0,0,0,.06,0,0,0,0a0.32,0.32,0,0,0-.14,0,0.28,0.28,0,0,1,0,.08s-0.07,0-.06.06-0.06,0-.06,0,0,0,0,0a0.73,0.73,0,0,1-.2.06,0.07,0.07,0,0,0,.06,0c0,0.11-.13.09-0.21,0.11s-0.12-.1-0.15,0a0.12,0.12,0,0,1,0,0,0.2,0.2,0,0,0-.11.11,0.22,0.22,0,0,1-.09,0,1.33,1.33,0,0,0-.09.14,0.06,0.06,0,0,1,.06.08,0.13,0.13,0,0,0-.08,0,0.24,0.24,0,0,0-.08-0.11s0,0,0,.06a0.11,0.11,0,0,1-.08-0.08,0.3,0.3,0,0,1-.17,0,0.31,0.31,0,0,1,0-.11c0.06,0.06.07,0,.14,0a0.6,0.6,0,0,1,0-.06H15.21s0.06,0,0-.08A1.43,1.43,0,0,0,15,25.58s0,0,0-.06a0.31,0.31,0,0,1-.14,0V25.41a0.12,0.12,0,0,0-.12,0,0.16,0.16,0,0,0-.18,0c0-.13-0.12-0.05-0.15-0.14a0.08,0.08,0,0,0-.09-0.14A0.32,0.32,0,0,0,14.16,25c0-.09,0-0.12,0-0.2a0.1,0.1,0,0,0,.09-0.11,0.35,0.35,0,0,0-.08,0c0-.07.05-0.19,0.12-0.17a0.06,0.06,0,0,0-.08,0,0.24,0.24,0,0,0,0-.18,0.77,0.77,0,0,0,.14-0.11V24c0.17,0,.15-0.19.27-0.29a0.74,0.74,0,0,0,0-.15,0.21,0.21,0,0,1,.2-0.08,0.08,0.08,0,0,0,0-.09,0.13,0.13,0,0,0,.11-0.17s0,0,.06,0,0.07-.09.09-0.15a0.24,0.24,0,0,1,0-.12,1.79,1.79,0,0,0,.18-0.09,0.52,0.52,0,0,1,.08-0.15,0.27,0.27,0,0,1,0-.12,0.24,0.24,0,0,0,.21-0.14,0.16,0.16,0,0,1,.08,0,0.64,0.64,0,0,1,.09-0.25A0.62,0.62,0,0,1,16,22.2c0.06,0,.06-0.07.12,0a0.26,0.26,0,0,1,.24-0.34,0.18,0.18,0,0,1,0-.17c0.06,0,.11,0,0.12-0.06s0,0.06.08,0a0.46,0.46,0,0,0,0-.12c0.06,0.06.09,0,.14,0a0.11,0.11,0,0,0,.11,0,0.29,0.29,0,0,1,0-.17A0.12,0.12,0,0,0,17,21.29s0-.05,0-0.06a0.12,0.12,0,0,0,.06,0s0-.05.08,0,0,0,0-.09a0.33,0.33,0,0,0,.18-0.2,0.22,0.22,0,0,0,.21-0.06,0.16,0.16,0,0,1,0-.11,0.15,0.15,0,0,0,.14-0.14c0.11,0.11.15-.16,0.32-0.14s0,0,0-.09a0.3,0.3,0,0,0,.27-0.26,0.86,0.86,0,0,0,.28-0.18c-0.06,0,0-.1,0-0.17s0.06,0,.08,0a0.43,0.43,0,0,1,.31-0.17,0.24,0.24,0,0,0,.08-0.2,0.77,0.77,0,0,0,.27-0.17,0.17,0.17,0,0,1,0-.09s0,0,0,0a0.16,0.16,0,0,1,.09-0.09s0,0,0,0a0.36,0.36,0,0,0,.2-0.23c0.06,0,.07,0,0.06-0.08a0.3,0.3,0,0,0,.17-0.21l0,0a2.55,2.55,0,0,0,.27-0.37,0.59,0.59,0,0,0-.21-0.29,2.24,2.24,0,0,1-.21-0.11c0-.07-0.08-0.07-0.09-0.14a1.12,1.12,0,0,1-.38-0.4c0-.14,0-0.14,0-0.29l0,0a0.09,0.09,0,0,0,0-.06A0.22,0.22,0,0,0,19,16.76a0.4,0.4,0,0,0,0-.08,0.18,0.18,0,0,1,0-.15A0.22,0.22,0,0,1,19,16.31a0.21,0.21,0,0,0,.09-0.24,0.25,0.25,0,0,0,.12-0.21c0.12,0,.16-0.16.29-0.2V15.59h0a0.72,0.72,0,0,1,.27-0.32,0.73,0.73,0,0,1,.09-0.17,0.65,0.65,0,0,0,.26-0.26h0.08l0.06-.09s0-.09,0-0.09,0,0,0-.08a0.56,0.56,0,0,0-.09-0.24,0.15,0.15,0,0,0,0-.12c0-.1,0-0.26-0.14-0.23a0.24,0.24,0,0,1,0-.12c0.06,0.06.09,0,.06-0.12a0.28,0.28,0,0,0-.18-0.08,0.3,0.3,0,0,0,0-.14s0-.08.08-0.09a0.38,0.38,0,0,0-.14-0.23,0.65,0.65,0,0,0,.08-0.15,0.41,0.41,0,0,0-.11,0,0.1,0.1,0,0,1,0-.09,0.48,0.48,0,0,1-.21-0.41,0.44,0.44,0,0,0,.09-0.09,0.22,0.22,0,0,1-.09-0.12s0,0,0,0a0.14,0.14,0,0,1-.08-0.18c0.07,0,0-.05.09,0a0.12,0.12,0,0,0-.15-0.06A0.21,0.21,0,0,0,19.36,12s0.08,0,.06-0.09a0.19,0.19,0,0,0,.15-0.09s-0.12-.18-0.06-0.21-0.06,0-.09-0.08a0.08,0.08,0,0,1,.08-0.06,0.4,0.4,0,0,1,0-.24s-0.06,0,0-.11a0.1,0.1,0,0,1,.08,0,1.21,1.21,0,0,1-.11-0.44l0,0a0.87,0.87,0,0,1,.08-0.17,0.27,0.27,0,0,0-.09,0,0.25,0.25,0,0,0,0-.14,0.12,0.12,0,0,0-.11,0c0-.08.07-0.1,0-0.15s0.08-.17,0-0.2c0.09-.06-0.05-0.1,0-0.11a0.56,0.56,0,0,0-.06-0.06,1.91,1.91,0,0,0,0-.27l0,0c0-.09-0.07-0.08-0.11-0.12a2,2,0,0,0,.11-0.32s0,0-.09,0a0.59,0.59,0,0,1,.06-0.31,0.21,0.21,0,0,1,0-.21,0.22,0.22,0,0,0-.08-0.06,0.23,0.23,0,0,1,.09-0.08,0.32,0.32,0,0,1,0-.14,0.87,0.87,0,0,0-.12-0.14c0-.08.08-0.17,0.12-0.11a0.15,0.15,0,0,0-.08-0.15A0.15,0.15,0,0,0,19.19,7.74Zm4.52,0.67a1.4,1.4,0,0,0,0-.43,3,3,0,0,0,.11-0.34,2.81,2.81,0,0,1,0-.66,0.15,0.15,0,0,1,0,0c0-.07,0-0.15-0.06-0.24s-0.12-.11-0.18-0.15-0.11,0-.09,0a0.47,0.47,0,0,0-.14,0,0.8,0.8,0,0,1-.26.18,2.3,2.3,0,0,1-.17.18,0.69,0.69,0,0,1-.21.18,4.53,4.53,0,0,1-.31.49s0,0-.08,0a0.3,0.3,0,0,1,0,.14,1.42,1.42,0,0,0-.21.43,1,1,0,0,0-.09.09,0.48,0.48,0,0,0,0,.15,1.54,1.54,0,0,0-.2.49,0.51,0.51,0,0,1,.09.12,0.24,0.24,0,0,1-.08.2,0.4,0.4,0,0,0,.09.24c0.1,0,.08.12,0.21,0.09s0,0.12.11,0.12a1.37,1.37,0,0,0,.14.21,0.25,0.25,0,0,1,.08,0,0.45,0.45,0,0,1,.15.27s0.1,0,.11.09,0.14,0.06.24,0,0,0,.12,0a0.72,0.72,0,0,0,.12.2,0.62,0.62,0,0,0,.11-0.06c0-.06,0-0.07,0-0.12a3.22,3.22,0,0,1,.15-0.61,0.62,0.62,0,0,1,0-.11,0.74,0.74,0,0,1,.06-0.21,1.84,1.84,0,0,1,.06-0.55c0.13-.1,0-0.34.15-0.43S23.71,8.44,23.71,8.41Zm-2,3.16c0.06,0,0,.08.08,0.06a0.37,0.37,0,0,0,0-.12A0.06,0.06,0,0,0,21.74,11.57ZM23,11.71a0.31,0.31,0,0,1-.18.06s0,0.06,0,.06a0.33,0.33,0,0,0-.24,0s-0.06.06-.08,0.06-0.08-.11-0.12-0.08-0.09.06-.14,0.09-0.08.22-.2,0.24a0.26,0.26,0,0,1,0,.11,0.11,0.11,0,0,1,.06.09,0.14,0.14,0,0,1-.09.06,0.2,0.2,0,0,0,0,.11s0,0,0,0a2.28,2.28,0,0,1,.2.18,0.39,0.39,0,0,0-.06.23,0,0,0,0,1,0,0,0.3,0.3,0,0,1,.06.15,0.14,0.14,0,0,0,.15,0,0.1,0.1,0,0,0,.11,0s0,0.08,0,.08A0.12,0.12,0,0,1,22.67,13s0,0,0-.06a0.16,0.16,0,0,0,.17-0.21A0.56,0.56,0,0,0,23,12.32a0.32,0.32,0,0,0,.09-0.18,2.32,2.32,0,0,1,.09-0.37A0.53,0.53,0,0,1,23,11.71ZM21.33,23.07a1.56,1.56,0,0,0-.08.2,0.51,0.51,0,0,0,.09.08,0.27,0.27,0,0,1,0-.08A0.15,0.15,0,0,0,21.42,23S21.39,23.11,21.33,23.07Zm0.41,2.15A0.34,0.34,0,0,0,22,25a1,1,0,0,0-.37-0.2A1,1,0,0,0,21.74,25.22ZM22,25.44h0v0h0v0Zm0,0c-0.09,0,0,.11,0,0h0ZM21.35,26s0,0,0,0v0c0.11,0,0,0,0-.09h0S21.31,26,21.35,26Z"/><path class="cls-2" d="M13.74,14.95s0.06-.14,0-0.18a0.08,0.08,0,0,0,.12-0.09,0.38,0.38,0,0,0,.34-0.24c0.05,0,.13-0.09.11-0.14s0.11-.15.2-0.2V14c0.07,0,.08-0.05.06-0.12h0.06c0-.08.09-0.13,0-0.17a0.06,0.06,0,0,1,.08-0.06c0-.18.32-0.43,0.09-0.58,0,0-.06,0-0.06,0-0.11-.13-0.33-0.08-0.44-0.2a0.12,0.12,0,0,1,0-.08c-0.05,0,0-.06,0-0.11a0.08,0.08,0,0,0,0,0,0.28,0.28,0,0,0,0-.12,0.45,0.45,0,0,0-.21-0.15,0.1,0.1,0,0,0,0-.06,0.27,0.27,0,0,0,0-.29A0.22,0.22,0,0,0,14,11.72s0,0,0,0,0,0,0,0,0-.1,0-0.15a1.79,1.79,0,0,1,0-.37,0.69,0.69,0,0,0,.09-0.17,0.22,0.22,0,0,0,.15-0.15,0.1,0.1,0,0,0,.09-0.08,0.09,0.09,0,0,1,.06,0,0.45,0.45,0,0,1,.28-0.14l0.17-.09,0.2-.08a0.35,0.35,0,0,1,.17-0.08l0,0a0.24,0.24,0,0,0,.14,0c-0.06-.12,0-0.19,0-0.27a4.63,4.63,0,0,0,0-.87s0-.09,0-0.14a0.59,0.59,0,0,0,0-.34s0-.06,0-0.11a0.43,0.43,0,0,0,0-.34,0.12,0.12,0,0,0,.06-0.08s0,0,0,0a0.38,0.38,0,0,0,0-.35,0.82,0.82,0,0,1-.14,0s0-.09-0.06-0.11a0.27,0.27,0,0,1-.11,0S15,7.54,15,7.52s0,0,0,0a0.41,0.41,0,0,0-.14-0.12V7.36s-0.06,0-.08,0,0,0,0-.06l-0.08,0a0.87,0.87,0,0,0-.06-0.09,0.2,0.2,0,0,1-.06,0s0,0,0-.06-0.1,0-.09-0.11a0.15,0.15,0,0,1-.09,0,0.1,0.1,0,0,1,0,0,1,1,0,0,0-.26-0.11c0-.15,0-0.24-0.15-0.23a0.21,0.21,0,0,0-.08-0.14,0.21,0.21,0,0,1,0-.08,0.26,0.26,0,0,0-.06-0.08s0-.12,0-0.14A0.71,0.71,0,0,0,14,6a0.23,0.23,0,0,1-.11-0.12c-0.05,0-.08,0-0.11,0a1.08,1.08,0,0,1,.41-0.21,1,1,0,0,1,.23-0.17l0.09,0a0.6,0.6,0,0,1,.14-0.06s0-.05.06-0.08,0.06,0,.08,0,0-.07,0-0.11a0.42,0.42,0,0,0,.18-0.14c0.06,0,0,0,0,.08s0.19,0,.2-0.06a0.21,0.21,0,0,1,.09,0A0.46,0.46,0,0,0,15.31,5c0.06,0,.12,0,0.11.08a0.13,0.13,0,0,0-.15.14c-0.06-.09-0.21,0-0.21.11a0.08,0.08,0,0,0-.11.06c-0.12,0-.12.09-0.17,0.14s0,0-.06,0,0,0.14-.08.12a0.09,0.09,0,0,1,0,.06A3.76,3.76,0,0,1,15,5.46s0.06,0,0,.08,0.06,0,.06,0,0-.11.09-0.17,0.14,0,.12-0.11a0.64,0.64,0,0,0,.21-0.09A0.81,0.81,0,0,0,16.18,5a0.1,0.1,0,0,0-.12,0c0-.07,0-0.08.09-0.09s-0.1,0-.15-0.06a1,1,0,0,1-.34.15s0,0,0,0a0.19,0.19,0,0,0-.09.11H15.42s0-.06,0-0.06a0.52,0.52,0,0,1,.21-0.08,1.57,1.57,0,0,1,.2-0.11A0.12,0.12,0,0,0,16,4.73a0.18,0.18,0,0,0,.24-0.11l0.17,0a0.47,0.47,0,0,0,0-.09c0.08,0,.16,0,0.15.12a0.43,0.43,0,0,1,.06,0c0,0.07.13,0.05,0.15,0.12s0.11,0,.12.08,0.08,0,.11,0,0-.06.06,0a0,0,0,0,0,0,0C17,4.91,17.2,4.94,17.22,5s0.07,0,0,0,0.06,0,0,.08a0.12,0.12,0,0,1,.11.11,1.25,1.25,0,0,1,.26,0,0.13,0.13,0,0,0,.14.09,0.32,0.32,0,0,1-.11.12,0.24,0.24,0,0,0,.09,0s0,0,0,0,0,0,.06,0,0,0.1,0,.08,0,0.06,0,.11-0.09.22-.15,0.32a0.19,0.19,0,0,1-.09.2,1,1,0,0,1-.2.31,0.55,0.55,0,0,1-.06,0c0,0.17-.14.29-0.18,0.46a0.4,0.4,0,0,0-.15.47s0,0,0,0c0,0.16.07,0.53,0,.76a0.18,0.18,0,0,0,0,0,0.34,0.34,0,0,1-.12.24s0.09,0.05.12,0.09a0.54,0.54,0,0,1-.08.14s0,0,.06,0,0,0.2,0,.35,0,0,.06,0a2,2,0,0,1,0,.58,0.36,0.36,0,0,1,0,.09c0,0.14,0,.29,0,0.49,0,0,0,0-.06.06a0.14,0.14,0,0,0,0,.11c0,0.05,0,0,0,.09a0.88,0.88,0,0,1,0,.21,0.32,0.32,0,0,0,.12.24c0,0.08,0,.1,0,0.18a0.21,0.21,0,0,1,.12.06,0.41,0.41,0,0,1-.06.08c0,0.06.06,0,.06,0.06s0,0,.08,0a0.13,0.13,0,0,0,.09.08s0,0.09,0,.09,0,0.16,0,.17a0.4,0.4,0,0,0,.12.23h0.08a0.45,0.45,0,0,1,0,.09,0.39,0.39,0,0,1,.17.15,0.17,0.17,0,0,0,0,.17s0.07,0,.06.06,0,0,0,0a1,1,0,0,1-.52.27,0.22,0.22,0,0,1,0,.09,0.3,0.3,0,0,0,.06.08,3.16,3.16,0,0,0,0,.44s0,0-.06,0a1.15,1.15,0,0,1,.06.26c0.07,0,0-.07,0-0.11s0.06,0.12.09,0.21,0,0,0,0,0,0.07,0,.09a6.67,6.67,0,0,0,.73-0.44,2.59,2.59,0,0,0,.6-0.53c0.11,0,.07-0.09.14-0.11S19,12.6,19,12.72s0,0-.06,0a1,1,0,0,1-.12.32,0.61,0.61,0,0,0-.18.17s0,0.09,0,.09a1.62,1.62,0,0,1-.27.27,0.77,0.77,0,0,0,0,.11c-0.19.14-.25,0.41-0.43,0.56a1.66,1.66,0,0,1-.09.21,0.09,0.09,0,0,1-.06,0,1.87,1.87,0,0,1-.06.63c-0.07,0-.13-0.07-0.17,0a0.85,0.85,0,0,1,0,.08,0.62,0.62,0,0,1-.17.12,0.1,0.1,0,0,1-.08.15s0,0-.09,0a0.44,0.44,0,0,0-.14.38,0.3,0.3,0,0,0-.26.06v0.17s-0.06,0-.06.06a0.2,0.2,0,0,0-.06-0.06,0.27,0.27,0,0,0-.12.18c-0.1,0-.09.12-0.08,0.23s-0.05,0,0,.09a0.17,0.17,0,0,0-.18.17s0,0,0,0a0.15,0.15,0,0,1-.17.11A0.52,0.52,0,0,1,16,17c0,0.15-.09.07-0.09,0.18,0-.07-0.09,0-0.15,0a0.22,0.22,0,0,0-.15,0,0.84,0.84,0,0,1-.69-0.2A1.16,1.16,0,0,1,14.63,17a3.3,3.3,0,0,1-.23-0.32,1.11,1.11,0,0,0-.14-0.15c0-.25-0.22-0.35-0.26-0.6a0.81,0.81,0,0,0-.21-0.27,1.23,1.23,0,0,0,0-.37,0.46,0.46,0,0,1-.08-0.06s0.06-.11,0-0.14A0.09,0.09,0,0,1,13.77,15,0.05,0.05,0,0,0,13.74,14.95Z"/><path class="cls-2" d="M16.37,16.7s0,0,0,0,0,0,0,0S16.4,16.71,16.37,16.7Z"/><path class="cls-2" d="M15.77,25.76c0-.06,0,0,0,0S15.77,25.78,15.77,25.76Z"/><path class="cls-2" d="M15.59,26s0,0,0,0,0,0.05,0,.06A0.21,0.21,0,0,0,15.59,26Z"/><path class="cls-2" d="M21.79,31.8c0,0.06.06,0.08,0.08,0.11s0,0.09,0,.08a0.26,0.26,0,0,0,0,.2,0.74,0.74,0,0,1,.12,0,0.07,0.07,0,0,0,.06.11,0.2,0.2,0,0,0,0,.15,0.09,0.09,0,0,0,.08,0s0,0.08,0,.06,0,0.23.12,0.25a0.66,0.66,0,0,0,.06.4c0.06,0,.07,0,0.12,0s0,0-.09,0a0.16,0.16,0,0,1,0,.17,0.59,0.59,0,0,1,.11.08,0.18,0.18,0,0,0,0,.11,0.11,0.11,0,0,0,.08-0.09c0.1,0,.15.06,0.21,0.06a0.44,0.44,0,0,1,0,.18,2.49,2.49,0,0,0,.09.26,0.17,0.17,0,0,0-.06.17,0.57,0.57,0,0,0,.12.08,1.81,1.81,0,0,0,0,.27,1.39,1.39,0,0,0,.37-0.18c0-.07,0-0.09.06-0.14s0,0,0,0,0.12-.09.15-0.14a0.49,0.49,0,0,0,0-.06l0,0a0.31,0.31,0,0,0,.09-0.17l0.06,0a0.08,0.08,0,0,1,0,0,0.26,0.26,0,0,0,.14-0.09,0.22,0.22,0,0,0-.15-0.09,0.28,0.28,0,0,0,0-.12,1.72,1.72,0,0,1-.21-0.11v0c-0.12,0-.14-0.14-0.26-0.17a0.1,0.1,0,0,1,0-.08,0.57,0.57,0,0,1,.11.12,1.64,1.64,0,0,1,.35.06l0.11,0a1.23,1.23,0,0,0,.35.06c0.1,0,.11-0.11.21-0.14a0.16,0.16,0,0,1,0-.09c0.06,0,.14,0,0.14-0.11s0.15-.11.28-0.17a0.16,0.16,0,0,0,0-.06,0.61,0.61,0,0,0,.35-0.32,0.16,0.16,0,0,0,.15-0.06l0.14,0.06a0.92,0.92,0,0,1,.21,0c0.1,0,.18.15,0.26,0.08a0.17,0.17,0,0,1,.08.11,1.16,1.16,0,0,1,.41.32c0.07,0.21.25,0.31,0.32,0.52a0.62,0.62,0,0,0,.12.15A2.59,2.59,0,0,0,27,34a0.34,0.34,0,0,0,.12.26,4.21,4.21,0,0,0,.12.43c0.06,0,0,.06.06,0.12a0.75,0.75,0,0,1,.08.2,0.61,0.61,0,0,1,0,.09,2,2,0,0,0,0,.26c0,0.05,0,.1,0,0.14a3,3,0,0,0,0,.4,0.75,0.75,0,0,1,0,.28l-0.06,0c0,0.08,0,.15-0.06.17a0.87,0.87,0,0,1-.26.49h0a0.25,0.25,0,0,1-.26.14s0,0,0,0a0.38,0.38,0,0,0-.18.08,2.05,2.05,0,0,1-.49,0C26,37,25.93,37,26,37a0.93,0.93,0,0,1-.29-0.31V36.54s0,0.06-.06.06a0.12,0.12,0,0,1-.14-0.14c-0.14,0-.2-0.13-0.24-0.24a0.13,0.13,0,0,1-.12,0c0-.08,0-0.13,0-0.2s-0.08-.2,0-0.23A0.85,0.85,0,0,1,25,35.68a1,1,0,0,1,.08-0.35c0-.29.12-0.55,0.06-0.86a0.08,0.08,0,0,0-.08-0.06,0.79,0.79,0,0,0-.24-0.31H24.73a0.1,0.1,0,0,1,0-.08c-0.22-.14-0.44-0.23-0.64-0.35A0.22,0.22,0,0,0,24,34a0.12,0.12,0,0,1,0,.08,2.78,2.78,0,0,1-.2.41,0.1,0.1,0,0,1-.09,0v0.08c-0.12.05-.14,0.23-0.24,0.26v0.09L23.28,35a0.24,0.24,0,0,1-.11.14,0.7,0.7,0,0,1-.29.2c0.09,0.21-.18.27-0.18,0.38a1,1,0,0,0-.24.2c-0.08,0-.2,0-0.18.17a0.43,0.43,0,0,0-.2.08H22a1,1,0,0,0-.06.09,0.65,0.65,0,0,1,0,.08s0,0-.08,0,0,0.12-.11.11a0.17,0.17,0,0,1,0,.14c-0.06-.1-0.11.05-0.23,0s0,0,0-.06a0.09,0.09,0,0,0-.09,0s-0.09,0-.08-0.08a0.31,0.31,0,0,0-.15.11l-0.12,0a0.18,0.18,0,0,1-.11.12s0-.08-0.06-0.08,0,0,0,.08,0-.07-0.11-0.14,0,0.05-.06.08,0-.15-0.08-0.2,0,0.07,0,.11l-0.11,0c0-.06.08,0,0.06-0.08s-0.18.05-.12,0.15,0,0-.08,0,0.05,0,0,.09a0.89,0.89,0,0,1-.15,0s0,0.08-.08.08a0.13,0.13,0,0,1,0-.06,0.16,0.16,0,0,1-.12,0s0,0,0-.06a0.23,0.23,0,0,0-.23.11,0.2,0.2,0,0,0-.23,0v0c-0.08,0-.06.12-0.14,0.08a0.19,0.19,0,0,1,0,.11,0.24,0.24,0,0,1-.14-0.06,0.29,0.29,0,0,0,0-.08s0,0,0,0-0.09.08,0,.11-0.09,0-.08,0,0,0-.08,0a0.1,0.1,0,0,0,0,.11s-0.05.08-.09,0,0,0.07,0,.06,0,0,0-.06,0,0.08-.09,0,0,0.08-.06.09-0.1.12-.11,0.21a0.07,0.07,0,0,1,0-.09,0.46,0.46,0,0,0-.09-0.06s0,0,0,.06a0.23,0.23,0,0,1-.11,0,0.14,0.14,0,0,1,.12-0.08,0.1,0.1,0,0,0,0-.06,0.06,0.06,0,0,0-.08.06s0-.07-0.08-0.06-0.13.18-.21,0.11v0.11s0,0,.06,0,0,0.06,0,.08a0.11,0.11,0,0,1-.09,0,0.48,0.48,0,0,0,0-.12c-0.06.07-.17,0.1-0.23,0.18l0,0a0.17,0.17,0,0,0,0,0c-0.11-.05,0-0.16,0-0.27s-0.09,0-.06-0.06a0.42,0.42,0,0,0-.17.29c-0.07,0,0,0-.06,0l0,0V37.44c-0.12,0-.12.08-0.14,0.17a0.22,0.22,0,0,0-.11,0,0.25,0.25,0,0,1,0,.14c-0.07,0-.06-0.09-0.06-0.17a0.07,0.07,0,0,0-.08,0,1.11,1.11,0,0,0,0,.2c-0.07,0-.16-0.05-0.18,0s0,0,0-.08-0.08,0-.12,0,0,0.08-.06.08a0.09,0.09,0,0,0,.11,0c0,0.06-.06,0-0.14.06a0.08,0.08,0,0,1,.08,0,0.18,0.18,0,0,0-.21,0s0,0,0,0a0.34,0.34,0,0,0-.11,0,0.12,0.12,0,0,1,0,.15s0,0,0,0a0.23,0.23,0,0,1-.23,0,0.51,0.51,0,0,1-.34.06,0.06,0.06,0,0,0,0,.06,0.1,0.1,0,0,1-.06,0,0.25,0.25,0,0,0,0,.09s0,0-.08,0,0,0,0,0l-0.14.11a0.71,0.71,0,0,0-.27,0,0.17,0.17,0,0,1-.09.12,0.38,0.38,0,0,0-.18,0,0.22,0.22,0,0,0-.2-0.09s0,0.06-.06.06a1.2,1.2,0,0,1-.23-0.18c0-.06,0-0.12,0-0.14a0.07,0.07,0,0,0,0,.08s-0.06,0,0-.08a1.23,1.23,0,0,1-.15-0.18,0.29,0.29,0,0,1,0-.14,0.32,0.32,0,0,1,0-.29,0.76,0.76,0,0,1-.14-0.27l0,0A0.09,0.09,0,0,1,14.14,37a0.72,0.72,0,0,1,0-.46s-0.05-.16,0-0.17a0.09,0.09,0,0,1,0-.09s0,0,0,0,0-.06,0-0.09,0.07-.08,0-0.15,0.05,0,0-.09,0,0.05-.08,0a0.07,0.07,0,0,1,0-.11h0a0.64,0.64,0,0,0,.12-0.41,0.15,0.15,0,0,1,.09,0,0.26,0.26,0,0,1,.09-0.15,0.54,0.54,0,0,0,.27-0.2,0.37,0.37,0,0,0,.09-0.15h0s0-.05,0-0.08h0a0.46,0.46,0,0,0,0-.06s0,0,0,0a0.62,0.62,0,0,1,.08-0.21,0.92,0.92,0,0,1,.06-0.24,0.27,0.27,0,0,0,0-.09s0-.05,0-0.08A0.72,0.72,0,0,0,15,33.76a0.13,0.13,0,0,0,.06-0.06s0-.06,0-0.09,0,0,0,0a0.81,0.81,0,0,0,0-.09h0a0.36,0.36,0,0,0,0-.08s0.05,0,.06-0.06,0-.06,0-0.09A0.5,0.5,0,0,0,15.24,33c0-.11,0-0.29,0-0.43a4.63,4.63,0,0,1-.08-0.53,2,2,0,0,1-.11-0.2,0.12,0.12,0,0,1,0-.08A2.07,2.07,0,0,1,15,31.53a0.12,0.12,0,0,1,.11,0s0,0,0-.06a2,2,0,0,1,.4.11s0,0.06,0,.08a2.62,2.62,0,0,0,.57.25c0,0.08.08,0.06,0.06,0.14a0.14,0.14,0,0,1,.09.12,0.26,0.26,0,0,1,.08,0,3.06,3.06,0,0,1,.32.43,2,2,0,0,1,.34.32,1.43,1.43,0,0,1,.26.81c0.06,0,.07.23,0,0.2a1.3,1.3,0,0,1,.06.2s0,0.1,0,.09a0.21,0.21,0,0,0,0,.2c0,0.15-.09.28-0.09,0.47a0.22,0.22,0,0,1-.08.09,0.31,0.31,0,0,1,0,.11,0.6,0.6,0,0,1,.17,0A1.89,1.89,0,0,1,18,35s0,0,0,0,0.07,0,.06,0h0.08a0.37,0.37,0,0,1,.2-0.06l0.11,0a0.14,0.14,0,0,0,0,0,0.27,0.27,0,0,0,.23,0,1.13,1.13,0,0,1,.32,0s0,0,0,0,0.18,0.08.27,0a0.19,0.19,0,0,1,0-.14c0.17,0,.25,0,0.37,0a0.2,0.2,0,0,1,.24,0,0.58,0.58,0,0,0,.17-0.11s0,0,0,0,0-.07,0-0.08a0.84,0.84,0,0,1,0-.31h0s0-.07,0-0.09a0.17,0.17,0,0,1,0,0s0-.06,0-0.09a2.17,2.17,0,0,1-.12-0.66,0.64,0.64,0,0,0-.31-0.47,0.81,0.81,0,0,1-.09-0.24,0.29,0.29,0,0,1,0-.06,0.43,0.43,0,0,0,0-.3,0.37,0.37,0,0,1,.09-0.34,0.33,0.33,0,0,0-.09-0.06s0-.16,0-0.12,0.21,0,.17-0.14a0.14,0.14,0,0,0,.12-0.11,0.56,0.56,0,0,1,.26,0,0.21,0.21,0,0,0,.09.08s0,0,0,0l0.15,0a1.46,1.46,0,0,0,.17-0.08h0.08A1.23,1.23,0,0,1,20.78,31s0,0,.06,0,0.11,0,.14,0a0.27,0.27,0,0,1,.08.12,0.47,0.47,0,0,1,.4.32s0.05,0,.08,0A1.5,1.5,0,0,0,21.79,31.8Zm3,0.95c0,0.05-.07,0-0.08.12a1.84,1.84,0,0,0-.24.23,1,1,0,0,0,0,.11,0.6,0.6,0,0,0-.15.15,0.18,0.18,0,0,1,.09.06c0.1-.07.15,0,0.24,0.06a4.88,4.88,0,0,1,.57.18s0,0,0,0c0-.33,0-0.68,0-1A2.25,2.25,0,0,0,24.78,32.75ZM18.61,37.1a0.11,0.11,0,0,0,.12,0A0.23,0.23,0,0,1,18.63,37,0.13,0.13,0,0,0,18.61,37.1Z"/><path class="cls-2" d="M14.46,35.12s0,0.1-.06.08A0.31,0.31,0,0,0,14.46,35.12Z"/><path class="cls-2" d="M22.72,33.42s0,0.07,0,0A0.16,0.16,0,0,1,22.72,33.42Z"/><path class="cls-2" d="M14.58,34.84s0,0,0,.06,0,0-.06,0v0A0,0,0,0,0,14.58,34.84Z"/><path class="cls-2" d="M18.32,37.24s0.08,0,.06,0,0,0,0,0S18.37,37.28,18.32,37.24Z"/><path class="cls-2" d="M18.09,37.39c0.05,0,0,0,0,0S18.1,37.42,18.09,37.39Z"/></svg>